<svg width="90" height="29" viewBox="0 0 90 29" fill="none" xmlns="http://www.w3.org/2000/svg">
<g clip-path="url(#clip0_12_945)">
<path d="M14.4008 14.4C14.4007 13.7696 14.5249 13.1454 14.7661 12.563C15.0073 11.9806 15.3608 11.4514 15.8065 11.0056C16.2523 10.5599 16.7814 10.2063 17.3638 9.96504C17.9462 9.7238 18.5704 9.59963 19.2008 9.59963C19.8312 9.59963 20.4554 9.7238 21.0377 9.96504C21.6201 10.2063 22.1493 10.5599 22.595 11.0056C23.0407 11.4514 23.3943 11.9806 23.6355 12.563C23.8767 13.1454 24.0008 13.7696 24.0008 14.4C24.0007 15.673 23.4949 16.8938 22.5948 17.7939C21.6946 18.694 20.4738 19.1996 19.2008 19.1996C17.9278 19.1996 16.707 18.694 15.8068 17.7939C14.9066 16.8938 14.4009 15.673 14.4008 14.4ZM4.80078 24C4.80078 22.727 5.30649 21.5061 6.20667 20.6059C7.10684 19.7057 8.32774 19.2 9.60078 19.2H14.4008V24C14.4008 24.6304 14.2767 25.2546 14.0355 25.837C13.7943 26.4194 13.4408 26.9486 12.995 27.3943C12.5493 27.8401 12.0201 28.1937 11.4377 28.435C10.8554 28.6762 10.2312 28.8004 9.60078 28.8004C8.97041 28.8004 8.3462 28.6762 7.76382 28.435C7.18143 28.1937 6.65226 27.8401 6.20654 27.3943C5.76081 26.9486 5.40725 26.4194 5.16605 25.837C4.92485 25.2546 4.80073 24.6304 4.80078 24ZM14.4008 1.40638e-08V9.6H19.2008C19.8312 9.60005 20.4554 9.47593 21.0378 9.23473C21.6202 8.99353 22.1494 8.63997 22.5951 8.19424C23.0409 7.74852 23.3945 7.21935 23.6357 6.63696C23.877 6.05458 24.0011 5.43038 24.0011 4.8C24.0011 4.16962 23.877 3.54542 23.6357 2.96303C23.3945 2.38065 23.0409 1.85148 22.5951 1.40576C22.1494 0.960031 21.6202 0.606474 21.0378 0.365273C20.4554 0.124072 19.8312 -4.8239e-05 19.2008 1.40638e-08H14.4008ZM4.80078 4.8C4.80078 6.07304 5.30649 7.29394 6.20667 8.19411C7.10684 9.09429 8.32774 9.6 9.60078 9.6H14.4008V1.40638e-08H9.60078C8.32774 2.1523e-08 7.10684 0.505713 6.20667 1.40589C5.30649 2.30606 4.80078 3.52696 4.80078 4.8ZM4.80078 14.4C4.80078 15.673 5.30649 16.8939 6.20667 17.7941C7.10684 18.6943 8.32774 19.2 9.60078 19.2H14.4008V9.6H9.60078C8.32774 9.6 7.10684 10.1057 6.20667 11.0059C5.30649 11.9061 4.80078 13.127 4.80078 14.4Z" fill="white" fill-opacity="0.4"/>
</g>
<path d="M38.26 7.148H47.026V8.948H40.366V12.512H46.648V14.312H40.366V20H38.26V7.148ZM49.9426 6.896C50.3386 6.896 50.6806 7.022 50.9506 7.274C51.2026 7.526 51.3466 7.85 51.3466 8.246C51.3466 8.642 51.2026 8.984 50.9326 9.236C50.6626 9.488 50.3386 9.614 49.9426 9.614C49.5466 9.614 49.2226 9.488 48.9526 9.236C48.6826 8.966 48.5566 8.642 48.5566 8.246C48.5566 7.85 48.6826 7.526 48.9526 7.274C49.2226 7.022 49.5466 6.896 49.9426 6.896ZM48.9166 10.694H50.9686V20H48.9166V10.694ZM57.3836 10.442C58.5356 10.442 59.4536 10.892 60.1376 11.828V10.694H62.1896V19.406C62.1896 22.34 60.7316 23.816 57.8156 23.816C56.5016 23.816 55.5116 23.564 54.8276 23.096C54.1436 22.592 53.7116 21.836 53.5316 20.792H55.5836C55.6916 21.314 55.9076 21.674 56.2496 21.89C56.5736 22.088 57.0956 22.196 57.8156 22.196C59.3636 22.196 60.1376 21.368 60.1376 19.712V18.344C59.4536 19.298 58.5356 19.784 57.3836 19.784C56.1236 19.784 55.0976 19.352 54.3236 18.524C53.5316 17.678 53.1536 16.544 53.1536 15.14C53.1536 13.736 53.5316 12.602 54.3236 11.738C55.0976 10.874 56.1236 10.442 57.3836 10.442ZM57.7076 12.098C56.9336 12.098 56.3396 12.368 55.9076 12.908C55.4756 13.43 55.2596 14.168 55.2596 15.14C55.2596 16.022 55.4216 16.706 55.7636 17.21C56.1596 17.804 56.7896 18.11 57.6896 18.11C58.4816 18.11 59.0936 17.84 59.5256 17.336C59.9396 16.796 60.1556 16.076 60.1556 15.14C60.1556 14.186 59.9396 13.448 59.5256 12.908C59.0936 12.368 58.4816 12.098 57.7076 12.098ZM68.9137 10.442C70.2817 10.442 71.2537 10.946 71.8477 11.954C72.2797 11.378 72.7297 10.982 73.1977 10.766C73.6117 10.55 74.1337 10.442 74.7637 10.442C75.7177 10.442 76.5097 10.748 77.1577 11.396C77.7697 12.044 78.0937 12.872 78.0937 13.898V20H76.0417V14.258C76.0417 13.52 75.8797 12.98 75.5737 12.656C75.2497 12.314 74.7457 12.152 74.0257 12.152C73.5217 12.152 73.1077 12.332 72.7657 12.728C72.4057 13.106 72.2437 13.628 72.2437 14.312V20H70.1917V14.276C70.1917 12.854 69.5797 12.152 68.3557 12.152C67.7617 12.152 67.2937 12.368 66.9337 12.836C66.5737 13.268 66.3937 13.808 66.3937 14.42V20H64.3417V10.694H66.3937V11.648C67.1677 10.838 68.0137 10.442 68.9137 10.442ZM84.4799 10.442C85.8479 10.442 86.8739 10.784 87.5219 11.468C88.0979 12.062 88.3859 12.926 88.3859 14.06V20H86.4779V18.776C86.1179 19.244 85.6679 19.586 85.1459 19.838C84.5519 20.108 83.8499 20.252 83.0399 20.252C82.0679 20.252 81.3119 20 80.7539 19.514C80.1779 19.01 79.8899 18.38 79.8899 17.606C79.8899 16.562 80.2859 15.752 81.1139 15.194C81.8699 14.654 82.9319 14.366 84.2999 14.33L86.3339 14.276V13.916C86.3339 12.692 85.6679 12.098 84.3359 12.098C83.7599 12.098 83.3099 12.188 82.9679 12.404C82.5719 12.638 82.3019 12.998 82.1939 13.484L80.1599 13.322C80.3579 12.296 80.8619 11.54 81.6719 11.072C82.3559 10.64 83.2919 10.442 84.4799 10.442ZM86.3339 15.752L84.4439 15.806C82.8059 15.842 81.9959 16.418 81.9959 17.534C81.9959 17.858 82.1219 18.128 82.4099 18.344C82.6979 18.56 83.0579 18.686 83.5079 18.686C84.2999 18.686 84.9659 18.452 85.5059 18.002C86.0459 17.534 86.3339 16.94 86.3339 16.22V15.752Z" fill="white" fill-opacity="0.4"/>
<defs>
<clipPath id="clip0_12_945">
<rect width="28.8" height="28.8" fill="white"/>
</clipPath>
</defs>
</svg>
