<svg width="116" height="26" viewBox="0 0 116 26" fill="none" xmlns="http://www.w3.org/2000/svg">
<path d="M21.3955 0C24.465 0 26 1.53505 26 4.60449V20.7461C25.9999 23.8154 24.4649 25.3496 21.3955 25.3496H4.60449C1.53514 25.3496 8.82743e-05 23.8154 0 20.7461V4.60449C0 1.53505 1.53505 0 4.60449 0H21.3955ZM9.16309 6.49219C9.14663 6.48984 9.13004 6.49187 9.11426 6.49707C9.09834 6.50236 9.08315 6.5106 9.07129 6.52246C9.05943 6.53432 9.05119 6.54952 9.0459 6.56543C9.0407 6.58121 9.03867 6.59781 9.04102 6.61426C9.04027 6.85122 9.01721 7.08776 8.97168 7.32031C8.9368 7.454 8.90117 7.57406 8.86621 7.67871L5.37793 17.7246C5.34312 17.8524 5.38406 17.9168 5.5 17.917H7.54102C7.58864 17.9193 7.63566 17.9045 7.67383 17.876C7.71195 17.8474 7.73881 17.8061 7.75 17.7598L8.57031 15.2129H12.5996L13.4883 17.7939C13.4975 17.832 13.5206 17.8662 13.5527 17.8887C13.5848 17.9111 13.6242 17.9203 13.6631 17.916H15.9307C16.0352 17.9161 16.0699 17.8585 16.0352 17.7422L12.0762 6.5791C12.0643 6.52116 12.0176 6.49222 11.9365 6.49219H9.16309ZM17.3252 9.24805C17.2323 9.24821 17.1865 9.30079 17.1865 9.40527V17.7422C17.1867 17.8582 17.2385 17.9159 17.3428 17.916H19.4707C19.5637 17.9162 19.6103 17.8585 19.6104 17.7422V9.40527C19.6102 9.30055 19.5637 9.24805 19.4707 9.24805H17.3252ZM10.5762 8.49805C10.6458 8.754 10.7243 9.0359 10.8115 9.34375C10.8987 9.65185 10.995 9.97228 11.0996 10.3037L11.4131 11.2979C11.5175 11.6293 11.6168 11.9401 11.71 12.2305C11.803 12.5213 11.8843 12.7832 11.9541 13.0156H9.19824C9.36096 12.5507 9.52667 12.0448 9.69531 11.498C9.86379 10.9516 10.0294 10.4167 10.1924 9.89355C10.3382 9.43501 10.4604 8.9691 10.5586 8.49805H10.5762ZM18.4248 5.62012C18.2468 5.61555 18.0694 5.64663 17.9033 5.71094C17.7372 5.77531 17.5846 5.87172 17.4561 5.99512C17.3264 6.11976 17.2248 6.2708 17.1572 6.4375C17.0897 6.60419 17.0582 6.78315 17.0645 6.96289C17.057 7.14456 17.0856 7.32646 17.1484 7.49707C17.2113 7.66752 17.3072 7.82372 17.4307 7.95703C17.5546 8.08487 17.7039 8.18584 17.8691 8.25195C18.0344 8.318 18.2119 8.34796 18.3896 8.34082C18.5742 8.34957 18.759 8.31994 18.9316 8.25391C19.1041 8.18786 19.2611 8.08666 19.3926 7.95703C19.5184 7.82493 19.6163 7.66876 19.6807 7.49805C19.745 7.3273 19.7749 7.14523 19.7676 6.96289C19.7745 6.78605 19.7469 6.60938 19.6855 6.44336C19.6242 6.2773 19.5304 6.12501 19.4102 5.99512C19.1719 5.74515 18.8433 5.62018 18.4248 5.62012Z" fill="white" fill-opacity="0.4"/>
<path d="M35.26 6.148H37.366V19H35.26V6.148ZM39.883 5.896H41.935V19H39.883V5.896ZM44.4534 5.896H46.5054V19H44.4534V5.896ZM48.8437 9.694H50.8957V15.364C50.8957 16.12 51.0397 16.66 51.3637 17.02C51.6877 17.362 52.1917 17.542 52.9117 17.542C53.3617 17.542 53.7937 17.344 54.2077 16.966C54.6217 16.57 54.9277 16.048 55.1077 15.382V9.694H57.1597V19H55.1077V17.794C54.3157 18.766 53.3437 19.252 52.1917 19.252C49.9597 19.252 48.8437 17.992 48.8437 15.49V9.694ZM62.8302 9.442C65.2782 9.442 66.6282 10.414 66.8442 12.394H64.8462C64.7022 11.926 64.4862 11.584 64.1982 11.404C63.8922 11.206 63.4242 11.116 62.7942 11.116C62.2542 11.116 61.8402 11.188 61.5702 11.35C61.2462 11.512 61.1022 11.764 61.1022 12.124C61.1022 12.412 61.3362 12.682 61.8402 12.898C62.1462 13.024 62.7582 13.204 63.6942 13.438C64.7382 13.69 65.5302 13.978 66.0342 14.32C66.7722 14.788 67.1502 15.454 67.1502 16.282C67.1502 18.262 65.7462 19.252 62.9562 19.252C60.3642 19.252 58.9782 18.154 58.7802 15.976H60.7782C60.8862 16.57 61.1022 16.984 61.4082 17.236C61.7142 17.452 62.2002 17.578 62.8842 17.578C64.3242 17.578 65.0442 17.182 65.0442 16.426C65.0442 15.994 64.7742 15.652 64.2342 15.4C63.9462 15.256 63.3342 15.094 62.3982 14.878C61.3002 14.626 60.5262 14.356 60.0762 14.068C59.3562 13.618 58.9962 12.988 58.9962 12.178C58.9962 11.314 59.3382 10.648 60.0582 10.18C60.7602 9.676 61.6782 9.442 62.8302 9.442ZM71.6933 6.688V9.694H73.7633V11.386H71.6933V16.642C71.6933 16.858 71.7293 17.02 71.8373 17.146C71.9453 17.254 72.0893 17.308 72.3053 17.308H73.5293V19H71.9633C71.1533 19 70.5593 18.784 70.1813 18.352C69.8213 17.956 69.6413 17.398 69.6413 16.642V11.386H67.9673V9.694H69.6413V7.534L71.6933 6.688ZM79.6908 9.442C80.1408 9.442 80.5368 9.514 80.8608 9.676V11.728C80.3928 11.584 79.9608 11.53 79.5288 11.53C78.9888 11.53 78.5028 11.728 78.0708 12.16C77.5668 12.646 77.3328 13.276 77.3328 14.068V19H75.2988V9.694H77.3328V11.026C77.5848 10.558 77.8728 10.198 78.2148 9.946C78.6288 9.604 79.1148 9.442 79.6908 9.442ZM86.2612 9.442C87.6292 9.442 88.6552 9.784 89.3032 10.468C89.8792 11.062 90.1672 11.926 90.1672 13.06V19H88.2592V17.776C87.8992 18.244 87.4492 18.586 86.9272 18.838C86.3332 19.108 85.6312 19.252 84.8212 19.252C83.8492 19.252 83.0932 19 82.5352 18.514C81.9592 18.01 81.6712 17.38 81.6712 16.606C81.6712 15.562 82.0672 14.752 82.8952 14.194C83.6512 13.654 84.7132 13.366 86.0812 13.33L88.1152 13.276V12.916C88.1152 11.692 87.4492 11.098 86.1172 11.098C85.5412 11.098 85.0912 11.188 84.7492 11.404C84.3532 11.638 84.0832 11.998 83.9752 12.484L81.9412 12.322C82.1392 11.296 82.6432 10.54 83.4532 10.072C84.1372 9.64 85.0732 9.442 86.2612 9.442ZM88.1152 14.752L86.2252 14.806C84.5872 14.842 83.7772 15.418 83.7772 16.534C83.7772 16.858 83.9032 17.128 84.1912 17.344C84.4792 17.56 84.8392 17.686 85.2892 17.686C86.0812 17.686 86.7472 17.452 87.2872 17.002C87.8272 16.534 88.1152 15.94 88.1152 15.22V14.752ZM95.248 6.688V9.694H97.318V11.386H95.248V16.642C95.248 16.858 95.284 17.02 95.392 17.146C95.5 17.254 95.644 17.308 95.86 17.308H97.084V19H95.518C94.708 19 94.114 18.784 93.736 18.352C93.376 17.956 93.196 17.398 93.196 16.642V11.386H91.522V9.694H93.196V7.534L95.248 6.688ZM103.173 9.442C104.577 9.442 105.711 9.892 106.575 10.828C107.421 11.746 107.853 12.916 107.853 14.356C107.853 15.778 107.421 16.948 106.593 17.848C105.729 18.784 104.577 19.252 103.173 19.252C101.751 19.252 100.617 18.784 99.7534 17.848C98.9074 16.948 98.4934 15.778 98.4934 14.356C98.4934 12.916 98.9074 11.746 99.7714 10.828C100.617 9.892 101.751 9.442 103.173 9.442ZM103.173 11.116C102.309 11.116 101.661 11.44 101.193 12.124C100.797 12.7 100.599 13.456 100.599 14.356C100.599 15.256 100.797 15.994 101.193 16.57C101.661 17.236 102.309 17.578 103.173 17.578C104.019 17.578 104.685 17.236 105.153 16.57C105.549 15.976 105.765 15.238 105.765 14.356C105.765 13.456 105.549 12.7 105.153 12.124C104.685 11.44 104.019 11.116 103.173 11.116ZM114.038 9.442C114.488 9.442 114.884 9.514 115.208 9.676V11.728C114.74 11.584 114.308 11.53 113.876 11.53C113.336 11.53 112.85 11.728 112.418 12.16C111.914 12.646 111.68 13.276 111.68 14.068V19H109.646V9.694H111.68V11.026C111.932 10.558 112.22 10.198 112.562 9.946C112.976 9.604 113.462 9.442 114.038 9.442Z" fill="white" fill-opacity="0.4"/>
</svg>
