<svg width="126" height="26" viewBox="0 0 126 26" fill="none" xmlns="http://www.w3.org/2000/svg">
<path d="M35.26 6.148H40.588C43.684 6.148 45.25 7.462 45.25 10.09C45.25 12.736 43.684 14.068 40.552 14.068H37.366V19H35.26V6.148ZM37.366 7.948V12.268H40.426C41.362 12.268 42.046 12.088 42.478 11.764C42.91 11.422 43.126 10.864 43.126 10.09C43.126 9.316 42.892 8.776 42.46 8.452C42.028 8.11 41.344 7.948 40.426 7.948H37.366ZM46.8749 5.896H48.9269V10.936C49.2689 10.414 49.7009 10.036 50.2049 9.784C50.6549 9.55 51.1769 9.442 51.7709 9.442C52.9049 9.442 53.7509 9.766 54.3089 10.432C54.8309 11.062 55.1009 11.998 55.1009 13.24V19H53.0489V13.6C53.0489 12.808 52.8869 12.196 52.5809 11.782C52.2209 11.332 51.6989 11.116 50.9969 11.116C50.3489 11.116 49.8449 11.368 49.4849 11.872C49.1069 12.376 48.9269 13.006 48.9269 13.798V19H46.8749V5.896ZM61.5836 9.442C62.9876 9.442 64.1216 9.892 64.9856 10.828C65.8316 11.746 66.2636 12.916 66.2636 14.356C66.2636 15.778 65.8316 16.948 65.0036 17.848C64.1396 18.784 62.9876 19.252 61.5836 19.252C60.1616 19.252 59.0276 18.784 58.1636 17.848C57.3176 16.948 56.9036 15.778 56.9036 14.356C56.9036 12.916 57.3176 11.746 58.1816 10.828C59.0276 9.892 60.1616 9.442 61.5836 9.442ZM61.5836 11.116C60.7196 11.116 60.0716 11.44 59.6036 12.124C59.2076 12.7 59.0096 13.456 59.0096 14.356C59.0096 15.256 59.2076 15.994 59.6036 16.57C60.0716 17.236 60.7196 17.578 61.5836 17.578C62.4296 17.578 63.0956 17.236 63.5636 16.57C63.9596 15.976 64.1756 15.238 64.1756 14.356C64.1756 13.456 63.9596 12.7 63.5636 12.124C63.0956 11.44 62.4296 11.116 61.5836 11.116ZM70.9726 6.688V9.694H73.0426V11.386H70.9726V16.642C70.9726 16.858 71.0086 17.02 71.1166 17.146C71.2246 17.254 71.3686 17.308 71.5846 17.308H72.8086V19H71.2426C70.4326 19 69.8386 18.784 69.4606 18.352C69.1006 17.956 68.9206 17.398 68.9206 16.642V11.386H67.2466V9.694H68.9206V7.534L70.9726 6.688ZM78.898 9.442C80.302 9.442 81.436 9.892 82.3 10.828C83.146 11.746 83.578 12.916 83.578 14.356C83.578 15.778 83.146 16.948 82.318 17.848C81.454 18.784 80.302 19.252 78.898 19.252C77.476 19.252 76.342 18.784 75.478 17.848C74.632 16.948 74.218 15.778 74.218 14.356C74.218 12.916 74.632 11.746 75.496 10.828C76.342 9.892 77.476 9.442 78.898 9.442ZM78.898 11.116C78.034 11.116 77.386 11.44 76.918 12.124C76.522 12.7 76.324 13.456 76.324 14.356C76.324 15.256 76.522 15.994 76.918 16.57C77.386 17.236 78.034 17.578 78.898 17.578C79.744 17.578 80.41 17.236 80.878 16.57C81.274 15.976 81.49 15.238 81.49 14.356C81.49 13.456 81.274 12.7 80.878 12.124C80.41 11.44 79.744 11.116 78.898 11.116ZM88.881 9.442C91.329 9.442 92.679 10.414 92.895 12.394H90.897C90.753 11.926 90.537 11.584 90.249 11.404C89.943 11.206 89.475 11.116 88.845 11.116C88.305 11.116 87.891 11.188 87.621 11.35C87.297 11.512 87.153 11.764 87.153 12.124C87.153 12.412 87.387 12.682 87.891 12.898C88.197 13.024 88.809 13.204 89.745 13.438C90.789 13.69 91.581 13.978 92.085 14.32C92.823 14.788 93.201 15.454 93.201 16.282C93.201 18.262 91.797 19.252 89.007 19.252C86.415 19.252 85.029 18.154 84.831 15.976H86.829C86.937 16.57 87.153 16.984 87.459 17.236C87.765 17.452 88.251 17.578 88.935 17.578C90.375 17.578 91.095 17.182 91.095 16.426C91.095 15.994 90.825 15.652 90.285 15.4C89.997 15.256 89.385 15.094 88.449 14.878C87.351 14.626 86.577 14.356 86.127 14.068C85.407 13.618 85.047 12.988 85.047 12.178C85.047 11.314 85.389 10.648 86.109 10.18C86.811 9.676 87.729 9.442 88.881 9.442ZM94.828 5.896H96.88V10.936C97.222 10.414 97.654 10.036 98.158 9.784C98.608 9.55 99.13 9.442 99.724 9.442C100.858 9.442 101.704 9.766 102.262 10.432C102.784 11.062 103.054 11.998 103.054 13.24V19H101.002V13.6C101.002 12.808 100.84 12.196 100.534 11.782C100.174 11.332 99.652 11.116 98.95 11.116C98.302 11.116 97.798 11.368 97.438 11.872C97.06 12.376 96.88 13.006 96.88 13.798V19H94.828V5.896ZM109.537 9.442C110.941 9.442 112.075 9.892 112.939 10.828C113.785 11.746 114.217 12.916 114.217 14.356C114.217 15.778 113.785 16.948 112.957 17.848C112.093 18.784 110.941 19.252 109.537 19.252C108.115 19.252 106.981 18.784 106.117 17.848C105.271 16.948 104.857 15.778 104.857 14.356C104.857 12.916 105.271 11.746 106.135 10.828C106.981 9.892 108.115 9.442 109.537 9.442ZM109.537 11.116C108.673 11.116 108.025 11.44 107.557 12.124C107.161 12.7 106.963 13.456 106.963 14.356C106.963 15.256 107.161 15.994 107.557 16.57C108.025 17.236 108.673 17.578 109.537 17.578C110.383 17.578 111.049 17.236 111.517 16.57C111.913 15.976 112.129 15.238 112.129 14.356C112.129 13.456 111.913 12.7 111.517 12.124C111.049 11.44 110.383 11.116 109.537 11.116ZM120.726 9.442C122.094 9.442 123.174 9.928 123.966 10.9C124.686 11.8 125.046 12.952 125.046 14.392C125.046 15.76 124.686 16.894 123.984 17.794C123.228 18.766 122.166 19.252 120.834 19.252C119.754 19.252 118.818 18.73 118.062 17.722V22.564H116.01V9.694H117.918V10.684C118.566 9.856 119.502 9.442 120.726 9.442ZM120.42 11.098C119.61 11.098 118.998 11.404 118.566 12.052C118.17 12.61 117.99 13.348 117.99 14.284V14.428C117.99 15.4 118.224 16.192 118.71 16.786C119.142 17.326 119.682 17.596 120.348 17.596C121.248 17.596 121.932 17.29 122.364 16.714C122.742 16.174 122.94 15.4 122.94 14.392C122.94 13.384 122.76 12.61 122.418 12.07C121.986 11.422 121.32 11.098 120.42 11.098Z" fill="white" fill-opacity="0.4"/>
<g clip-path="url(#clip0_21_726)">
<path d="M2.8886 26C1.3 26 0 24.7 0 23.1114V2.8886C0 1.3 1.3 0 2.8886 0H23.1114C24.7 0 26 1.3 26 2.8886V23.1114C26 24.7 24.7 26 23.1114 26H2.8886ZM6.5975 14.545H8.2979C9.6694 14.5899 10.8121 14.2135 11.7267 13.4141C12.6399 12.6165 13.0975 11.5739 13.0975 10.2875C13.0975 9.01745 12.7069 8.0418 11.9249 7.35865C11.1436 6.67615 10.0444 6.3349 8.6294 6.3349H4.9049V19.4454H6.5975V14.5444V14.545ZM14.7732 17.4219V19.1152C15.4953 19.4818 16.3417 19.6644 17.3127 19.6644C18.4288 19.6644 19.3388 19.4181 20.0415 18.9241C20.7448 18.4301 21.0958 17.7554 21.0958 16.8974C21.0958 16.2825 20.9118 15.7664 20.5452 15.3484C20.1779 14.9311 19.4734 14.5275 18.4288 14.1382C17.6059 13.8112 17.0742 13.5434 16.8344 13.3341C16.5938 13.1261 16.4742 12.8349 16.4742 12.4631C16.4742 12.0842 16.6406 11.7806 16.9734 11.5485C17.3069 11.3172 17.7379 11.2015 18.2689 11.2015C19.1542 11.2015 19.9472 11.427 20.6473 11.8781V10.2791C19.9635 10.0029 19.225 9.8644 18.4288 9.8644C17.4025 9.8644 16.5373 10.114 15.8353 10.6132C15.1333 11.113 14.7823 11.7767 14.7823 12.6061C14.7823 13.1878 14.937 13.6825 15.2471 14.092C15.5577 14.5008 16.2318 14.9136 17.2698 15.3316C18.133 15.6533 18.7057 15.9315 18.9878 16.1655C19.2705 16.3995 19.4109 16.6972 19.4109 17.0579C19.4109 17.9049 18.7649 18.3281 17.4727 18.3281C16.5081 18.3281 15.6078 18.0258 14.7732 17.4219ZM6.5975 7.8247H8.3239C10.3214 7.8247 11.3204 8.6684 11.3204 10.3551C11.3204 11.2242 11.052 11.8911 10.5163 12.3565C9.9801 12.8225 9.1962 13.0546 8.16335 13.0546H6.59685V7.8247H6.5975Z" fill="white" fill-opacity="0.4"/>
</g>
<defs>
<clipPath id="clip0_21_726">
<rect width="26" height="26" fill="white"/>
</clipPath>
</defs>
</svg>
