<svg width="143" height="26" viewBox="0 0 143 26" fill="none" xmlns="http://www.w3.org/2000/svg">
<path d="M3.76548 0.0669241C4.24738 -0.0259974 4.74116 0.00641703 5.22954 0.0020951C10.6665 0.00101462 16.1046 0.00317559 21.5416 0.00101462C22.7755 0.0139804 23.977 0.589878 24.8046 1.49748C25.5761 2.35214 26.0288 3.49962 25.9986 4.65465C25.9953 10.0949 25.9986 15.534 25.9975 20.9743C25.9424 22.125 25.4205 23.2325 24.608 24.0418C23.7263 24.8575 22.5367 25.3826 21.3244 25.3243C15.6335 25.3221 9.9426 25.3243 4.25278 25.3232C2.91514 25.2141 1.62937 24.4966 0.861145 23.3913C0.265799 22.5701 -0.00864384 21.5469 0.00108051 20.5399C0.00108051 15.279 0.00108048 10.0192 0 4.75946C0.00216097 4.07335 0.118853 3.38401 0.396537 2.75517C0.983239 1.37431 2.29062 0.338125 3.76548 0.0669241ZM6.70548 7.60437C5.67578 10.5887 4.62771 13.5654 3.59369 16.5475C3.45322 16.9873 3.22956 17.4054 3.20039 17.8733C3.95997 17.8657 4.71955 17.8582 5.47913 17.8765C5.54612 17.7922 5.67145 17.7425 5.69306 17.6269C5.94698 16.8025 6.21926 15.9846 6.46993 15.1602C7.79244 15.1732 9.11603 15.1623 10.4396 15.1645C10.6676 15.9673 10.9863 16.7399 11.2273 17.5383C11.2511 17.6766 11.358 17.7717 11.4391 17.8787C12.2764 17.856 13.1149 17.8668 13.9523 17.8733C13.7826 17.0791 13.438 16.3358 13.183 15.5664C12.1435 12.6297 11.0879 9.69835 10.0496 6.76051C9.99662 6.65355 9.93612 6.5509 9.86589 6.45366C8.89021 6.46554 7.91453 6.4569 6.93886 6.45798C6.84486 6.83723 6.84594 7.23701 6.70548 7.60437ZM17.291 9.20132C15.9965 9.57949 15.0219 10.7075 14.6373 11.9749C14.2235 13.3374 14.2829 14.8987 15.0036 16.1488C15.5568 17.1558 16.6178 17.8333 17.7437 18.004C18.3552 18.124 18.9841 18.0872 19.6043 18.0699C20.2785 17.9813 20.9884 17.9068 21.5859 17.5589C21.5632 16.9203 21.5762 16.2806 21.5772 15.6432C21.2596 15.5978 20.983 15.7977 20.674 15.8279C19.708 16.0192 18.6146 16.1153 17.7404 15.5719C17.2359 15.2942 17.009 14.7204 16.8966 14.1856C18.0484 14.204 19.2013 14.1867 20.3541 14.1953C20.9841 14.2094 21.6259 14.2655 22.2407 14.0894C22.379 13.1991 22.3822 12.2742 22.0948 11.412C21.8268 10.7129 21.4314 10.0052 20.7593 9.62379C19.7393 8.96902 18.4417 8.92796 17.291 9.20132Z" fill="white" fill-opacity="0.5"/>
<path d="M8.3644 8.93654L8.4973 8.8501C8.88735 10.2256 9.31414 11.5934 9.77659 12.9462C8.88195 12.9419 7.98731 12.9322 7.09375 12.9516C7.30012 12.5832 7.38332 12.1639 7.5173 11.7674C7.79931 10.8241 8.12561 9.89276 8.3644 8.93654ZM17.3648 11.4908C17.9029 10.876 18.9629 10.8231 19.5452 11.4011C19.8337 11.6788 19.9591 12.0797 19.9936 12.4708C18.965 12.5626 17.9278 12.4773 16.8959 12.5162C16.9812 12.1488 17.0936 11.7674 17.3648 11.4908Z" fill="white" fill-opacity="0.5"/>
<path d="M38.914 6.148H41.308L46.222 19H43.972L42.802 15.778H37.42L36.25 19H34L38.914 6.148ZM38.05 14.05H42.172L40.156 8.416H40.084L38.05 14.05ZM50.9508 6.148H52.9308V7.876H51.2388C50.9688 7.876 50.7708 7.948 50.6268 8.092C50.4828 8.236 50.4288 8.452 50.4288 8.758V9.694H52.8048V11.368H50.4288V19H48.3768V11.368H46.3068V9.694H48.3768V8.704C48.3768 7.912 48.5928 7.282 49.0428 6.832C49.4748 6.364 50.1228 6.148 50.9508 6.148ZM57.0155 6.688V9.694H59.0855V11.386H57.0155V16.642C57.0155 16.858 57.0515 17.02 57.1595 17.146C57.2675 17.254 57.4115 17.308 57.6275 17.308H58.8515V19H57.2855C56.4755 19 55.8815 18.784 55.5035 18.352C55.1435 17.956 54.9635 17.398 54.9635 16.642V11.386H53.2895V9.694H54.9635V7.534L57.0155 6.688ZM64.581 9.442C66.111 9.442 67.281 9.946 68.091 10.99C68.829 11.926 69.207 13.24 69.207 14.914H62.241C62.313 15.778 62.547 16.444 62.943 16.894C63.339 17.344 63.915 17.578 64.653 17.578C65.283 17.578 65.787 17.434 66.183 17.146C66.489 16.912 66.759 16.534 67.011 16.012H69.063C68.847 16.876 68.415 17.614 67.767 18.19C66.939 18.892 65.913 19.252 64.671 19.252C63.285 19.252 62.187 18.82 61.377 17.974C60.513 17.092 60.081 15.886 60.081 14.338C60.081 12.952 60.477 11.8 61.305 10.864C62.097 9.91 63.195 9.442 64.581 9.442ZM64.635 11.116C63.951 11.116 63.429 11.296 63.033 11.692C62.655 12.07 62.403 12.628 62.277 13.366H67.065C66.885 11.854 66.075 11.116 64.635 11.116ZM75.2259 9.442C75.6759 9.442 76.0719 9.514 76.3959 9.676V11.728C75.9279 11.584 75.4959 11.53 75.0639 11.53C74.5239 11.53 74.0379 11.728 73.6059 12.16C73.1019 12.646 72.8679 13.276 72.8679 14.068V19H70.8339V9.694H72.8679V11.026C73.1199 10.558 73.4079 10.198 73.7499 9.946C74.1639 9.604 74.6499 9.442 75.2259 9.442ZM83.7405 6.148H93.0105V7.948H85.8465V11.512H92.5785V13.312H85.8465V17.2H93.3165V19H83.7405V6.148ZM98.7633 6.148H100.743V7.876H99.0513C98.7813 7.876 98.5833 7.948 98.4393 8.092C98.2953 8.236 98.2413 8.452 98.2413 8.758V9.694H101.859V8.704C101.859 7.912 102.075 7.282 102.525 6.832C102.957 6.364 103.605 6.148 104.433 6.148H106.413V7.876H104.721C104.451 7.876 104.253 7.948 104.109 8.092C103.965 8.236 103.911 8.452 103.911 8.758V9.694H106.287V11.368H103.911V19H101.859V11.368H98.2413V19H96.1893V11.368H94.1193V9.694H96.1893V8.704C96.1893 7.912 96.4053 7.282 96.8553 6.832C97.2873 6.364 97.9353 6.148 98.7633 6.148ZM111.55 9.442C113.08 9.442 114.25 9.946 115.06 10.99C115.798 11.926 116.176 13.24 116.176 14.914H109.21C109.282 15.778 109.516 16.444 109.912 16.894C110.308 17.344 110.884 17.578 111.622 17.578C112.252 17.578 112.756 17.434 113.152 17.146C113.458 16.912 113.728 16.534 113.98 16.012H116.032C115.816 16.876 115.384 17.614 114.736 18.19C113.908 18.892 112.882 19.252 111.64 19.252C110.254 19.252 109.156 18.82 108.346 17.974C107.482 17.092 107.05 15.886 107.05 14.338C107.05 12.952 107.446 11.8 108.274 10.864C109.066 9.91 110.164 9.442 111.55 9.442ZM111.604 11.116C110.92 11.116 110.398 11.296 110.002 11.692C109.624 12.07 109.372 12.628 109.246 13.366H114.034C113.854 11.854 113.044 11.116 111.604 11.116ZM121.979 9.442C123.185 9.442 124.139 9.712 124.859 10.252C125.597 10.828 126.065 11.692 126.245 12.862H124.211C124.085 12.268 123.833 11.836 123.473 11.548C123.095 11.26 122.591 11.116 121.979 11.116C121.223 11.116 120.629 11.386 120.197 11.962C119.765 12.52 119.549 13.312 119.549 14.32C119.549 15.346 119.747 16.156 120.179 16.732C120.575 17.29 121.169 17.578 121.961 17.578C123.329 17.578 124.085 16.894 124.247 15.544H126.281C126.065 16.804 125.579 17.74 124.841 18.352C124.121 18.946 123.149 19.252 121.943 19.252C120.503 19.252 119.387 18.784 118.595 17.848C117.821 16.948 117.443 15.778 117.443 14.338C117.443 12.934 117.821 11.782 118.577 10.9C119.387 9.928 120.521 9.442 121.979 9.442ZM130.809 6.688V9.694H132.879V11.386H130.809V16.642C130.809 16.858 130.845 17.02 130.953 17.146C131.061 17.254 131.205 17.308 131.421 17.308H132.645V19H131.079C130.269 19 129.675 18.784 129.297 18.352C128.937 17.956 128.757 17.398 128.757 16.642V11.386H127.083V9.694H128.757V7.534L130.809 6.688ZM137.924 9.442C140.372 9.442 141.722 10.414 141.938 12.394H139.94C139.796 11.926 139.58 11.584 139.292 11.404C138.986 11.206 138.518 11.116 137.888 11.116C137.348 11.116 136.934 11.188 136.664 11.35C136.34 11.512 136.196 11.764 136.196 12.124C136.196 12.412 136.43 12.682 136.934 12.898C137.24 13.024 137.852 13.204 138.788 13.438C139.832 13.69 140.624 13.978 141.128 14.32C141.866 14.788 142.244 15.454 142.244 16.282C142.244 18.262 140.84 19.252 138.05 19.252C135.458 19.252 134.072 18.154 133.874 15.976H135.872C135.98 16.57 136.196 16.984 136.502 17.236C136.808 17.452 137.294 17.578 137.978 17.578C139.418 17.578 140.138 17.182 140.138 16.426C140.138 15.994 139.868 15.652 139.328 15.4C139.04 15.256 138.428 15.094 137.492 14.878C136.394 14.626 135.62 14.356 135.17 14.068C134.45 13.618 134.09 12.988 134.09 12.178C134.09 11.314 134.432 10.648 135.152 10.18C135.854 9.676 136.772 9.442 137.924 9.442Z" fill="white" fill-opacity="0.4"/>
</svg>
