<svg width="117" height="34" viewBox="0 0 117 34" fill="none" xmlns="http://www.w3.org/2000/svg">
<path d="M26.7072 10.2486C26.4436 11.4887 25.2893 12.381 23.9493 12.381H15.8534C15.6273 12.3755 15.407 12.4536 15.2349 12.6004C15.0628 12.7472 14.9509 12.9523 14.9206 13.1765L14.1719 20.2476C14.1157 20.7686 14.5494 21.2194 15.1031 21.2194H23.968C25.1504 21.2194 26.038 22.2411 25.8056 23.3346L24.8322 27.9269C24.567 29.1671 23.4127 30.0593 22.0743 30.0593H11.5044C10.3766 30.0593 9.50463 29.1265 9.64346 28.072L10.2518 23.4859C10.2877 23.2207 10.0693 22.9867 9.78697 22.9867H7.75442C6.62661 22.9867 5.75463 22.0555 5.89346 21.001L7.19754 11.1674C7.37381 9.84146 8.57025 8.84468 9.98976 8.84468H12.3639C12.5757 8.847 12.7815 8.77485 12.9454 8.64085C13.1094 8.50684 13.221 8.31949 13.2609 8.11153L13.8068 5.01824C13.9566 4.16654 14.7397 3.54102 15.6553 3.54102H25.8415C27.027 3.54102 27.913 4.56119 27.6822 5.65624L26.7057 10.2486H26.7072Z" fill="white" fill-opacity="0.4"/>
<path d="M48.84 9.896C50.352 9.896 51.612 10.292 52.584 11.084C53.52 11.84 54.078 12.884 54.276 14.18H52.224C52.008 13.334 51.612 12.722 51.018 12.326C50.442 11.93 49.704 11.75 48.804 11.75C47.454 11.75 46.446 12.2 45.762 13.136C45.132 13.964 44.826 15.116 44.826 16.592C44.826 18.104 45.132 19.274 45.744 20.084C46.41 20.948 47.454 21.398 48.858 21.398C49.776 21.398 50.532 21.164 51.108 20.732C51.72 20.246 52.152 19.508 52.404 18.536H54.456C54.168 20.048 53.502 21.218 52.44 22.064C51.45 22.856 50.262 23.252 48.876 23.252C46.734 23.252 45.132 22.568 44.088 21.236C43.17 20.084 42.72 18.536 42.72 16.592C42.72 14.684 43.188 13.118 44.142 11.93C45.222 10.562 46.788 9.896 48.84 9.896ZM60.5836 13.442C61.9876 13.442 63.1216 13.892 63.9856 14.828C64.8316 15.746 65.2636 16.916 65.2636 18.356C65.2636 19.778 64.8316 20.948 64.0036 21.848C63.1396 22.784 61.9876 23.252 60.5836 23.252C59.1616 23.252 58.0276 22.784 57.1636 21.848C56.3176 20.948 55.9036 19.778 55.9036 18.356C55.9036 16.916 56.3176 15.746 57.1816 14.828C58.0276 13.892 59.1616 13.442 60.5836 13.442ZM60.5836 15.116C59.7196 15.116 59.0716 15.44 58.6036 16.124C58.2076 16.7 58.0096 17.456 58.0096 18.356C58.0096 19.256 58.2076 19.994 58.6036 20.57C59.0716 21.236 59.7196 21.578 60.5836 21.578C61.4296 21.578 62.0956 21.236 62.5636 20.57C62.9596 19.976 63.1756 19.238 63.1756 18.356C63.1756 17.456 62.9596 16.7 62.5636 16.124C62.0956 15.44 61.4296 15.116 60.5836 15.116ZM71.6286 13.442C72.9966 13.442 73.9686 13.946 74.5626 14.954C74.9946 14.378 75.4446 13.982 75.9126 13.766C76.3266 13.55 76.8486 13.442 77.4786 13.442C78.4326 13.442 79.2246 13.748 79.8726 14.396C80.4846 15.044 80.8086 15.872 80.8086 16.898V23H78.7566V17.258C78.7566 16.52 78.5946 15.98 78.2886 15.656C77.9646 15.314 77.4606 15.152 76.7406 15.152C76.2366 15.152 75.8226 15.332 75.4806 15.728C75.1206 16.106 74.9586 16.628 74.9586 17.312V23H72.9066V17.276C72.9066 15.854 72.2946 15.152 71.0706 15.152C70.4766 15.152 70.0086 15.368 69.6486 15.836C69.2886 16.268 69.1086 16.808 69.1086 17.42V23H67.0566V13.694H69.1086V14.648C69.8826 13.838 70.7286 13.442 71.6286 13.442ZM86.6188 10.148H88.5988V11.876H86.9068C86.6368 11.876 86.4388 11.948 86.2948 12.092C86.1508 12.236 86.0968 12.452 86.0968 12.758V13.694H88.4728V15.368H86.0968V23H84.0448V15.368H81.9748V13.694H84.0448V12.704C84.0448 11.912 84.2608 11.282 84.7108 10.832C85.1428 10.364 85.7908 10.148 86.6188 10.148ZM88.7775 13.694H91.0095L93.4755 20.318L95.8335 13.694H98.0655L93.0255 26.564H90.8295L92.4675 22.784L88.7775 13.694ZM99.4221 10.148H101.528V18.158C101.528 19.274 101.78 20.084 102.302 20.624C102.806 21.146 103.634 21.416 104.768 21.416C105.884 21.416 106.712 21.146 107.234 20.624C107.738 20.084 108.008 19.274 108.008 18.158V10.148H110.114V18.122C110.114 19.796 109.646 21.074 108.71 21.956C107.774 22.82 106.46 23.252 104.768 23.252C103.058 23.252 101.744 22.82 100.844 21.974C99.8901 21.074 99.4221 19.796 99.4221 18.122V10.148ZM112.641 10.148H114.747V23H112.641V10.148Z" fill="white" fill-opacity="0.4"/>
</svg>
