<svg width="96" height="29" viewBox="0 0 96 29" fill="none" xmlns="http://www.w3.org/2000/svg">
<path d="M42.796 7.896C44.308 7.896 45.496 8.202 46.342 8.832C47.242 9.498 47.764 10.542 47.89 11.946H45.802C45.622 11.154 45.28 10.578 44.812 10.236C44.344 9.876 43.624 9.714 42.688 9.714C41.878 9.714 41.266 9.822 40.834 10.056C40.294 10.326 40.042 10.776 40.042 11.388C40.042 11.928 40.33 12.378 40.942 12.702C41.212 12.846 41.95 13.116 43.138 13.494C44.884 14.034 46 14.466 46.504 14.754C47.62 15.42 48.178 16.338 48.178 17.526C48.178 18.678 47.728 19.596 46.828 20.262C45.928 20.91 44.65 21.252 43.012 21.252C41.428 21.252 40.186 20.946 39.304 20.334C38.224 19.578 37.63 18.39 37.54 16.752H39.628C39.772 17.724 40.114 18.426 40.672 18.84C41.176 19.2 41.95 19.398 43.012 19.398C43.948 19.398 44.704 19.236 45.244 18.93C45.784 18.606 46.072 18.192 46.072 17.652C46.072 16.968 45.658 16.428 44.866 16.032C44.614 15.906 43.786 15.618 42.364 15.186C40.78 14.682 39.79 14.322 39.412 14.106C38.422 13.512 37.936 12.648 37.936 11.514C37.936 10.38 38.404 9.48 39.376 8.832C40.276 8.202 41.41 7.896 42.796 7.896ZM49.8046 7.896H51.8566V15.384L55.6726 11.694H58.3186L54.1966 15.546L58.6786 21H56.0506L52.7926 16.86L51.8566 17.742V21H49.8046V7.896ZM63.7138 11.442C65.2438 11.442 66.4138 11.946 67.2238 12.99C67.9618 13.926 68.3398 15.24 68.3398 16.914H61.3738C61.4458 17.778 61.6798 18.444 62.0758 18.894C62.4718 19.344 63.0478 19.578 63.7858 19.578C64.4158 19.578 64.9198 19.434 65.3158 19.146C65.6218 18.912 65.8918 18.534 66.1438 18.012H68.1958C67.9798 18.876 67.5478 19.614 66.8998 20.19C66.0718 20.892 65.0458 21.252 63.8038 21.252C62.4178 21.252 61.3198 20.82 60.5098 19.974C59.6458 19.092 59.2138 17.886 59.2138 16.338C59.2138 14.952 59.6098 13.8 60.4378 12.864C61.2298 11.91 62.3278 11.442 63.7138 11.442ZM63.7678 13.116C63.0838 13.116 62.5618 13.296 62.1658 13.692C61.7878 14.07 61.5358 14.628 61.4098 15.366H66.1978C66.0178 13.854 65.2078 13.116 63.7678 13.116ZM72.8827 8.688V11.694H74.9527V13.386H72.8827V18.642C72.8827 18.858 72.9187 19.02 73.0267 19.146C73.1347 19.254 73.2787 19.308 73.4947 19.308H74.7187V21H73.1527C72.3427 21 71.7487 20.784 71.3707 20.352C71.0107 19.956 70.8307 19.398 70.8307 18.642V13.386H69.1567V11.694H70.8307V9.534L72.8827 8.688ZM80.6642 11.442C81.8702 11.442 82.8242 11.712 83.5442 12.252C84.2822 12.828 84.7502 13.692 84.9302 14.862H82.8962C82.7702 14.268 82.5182 13.836 82.1582 13.548C81.7802 13.26 81.2762 13.116 80.6642 13.116C79.9082 13.116 79.3142 13.386 78.8822 13.962C78.4502 14.52 78.2342 15.312 78.2342 16.32C78.2342 17.346 78.4322 18.156 78.8642 18.732C79.2602 19.29 79.8542 19.578 80.6462 19.578C82.0142 19.578 82.7702 18.894 82.9322 17.544H84.9662C84.7502 18.804 84.2642 19.74 83.5262 20.352C82.8062 20.946 81.8342 21.252 80.6282 21.252C79.1882 21.252 78.0722 20.784 77.2802 19.848C76.5062 18.948 76.1282 17.778 76.1282 16.338C76.1282 14.934 76.5062 13.782 77.2622 12.9C78.0722 11.928 79.2062 11.442 80.6642 11.442ZM86.578 7.896H88.63V12.936C88.972 12.414 89.404 12.036 89.908 11.784C90.358 11.55 90.88 11.442 91.474 11.442C92.608 11.442 93.454 11.766 94.012 12.432C94.534 13.062 94.804 13.998 94.804 15.24V21H92.752V15.6C92.752 14.808 92.59 14.196 92.284 13.782C91.924 13.332 91.402 13.116 90.7 13.116C90.052 13.116 89.548 13.368 89.188 13.872C88.81 14.376 88.63 15.006 88.63 15.798V21H86.578V7.896Z" fill="white" fill-opacity="0.4"/>
<g clip-path="url(#clip0_12_941)">
<path d="M14.4 1.5L22.5 9.4644V2.4L14.4 1.5ZM14.4 1.5L7.14 9.9H21.66L14.4 1.5ZM14.4 1.5L6.3 2.4V9.4644L14.4 1.5ZM6.3 2.4L0 10.8L5.2992 9.984L6.3 2.4ZM0 10.8L14.3508 27.2436L14.3604 27.2268L5.3316 10.8H0ZM22.5 2.4L23.5008 9.984L28.8 10.8L22.5 2.4ZM28.8 10.8H23.3928L14.3652 27.228L14.4 27.3L28.8 10.8ZM14.4 27.3L14.3628 27.2316L14.3532 27.246L14.4 27.3ZM6.5232 10.8L14.3628 27.2232L22.2768 10.8H6.5232Z" fill="white" fill-opacity="0.4"/>
</g>
<defs>
<clipPath id="clip0_12_941">
<rect width="28.8" height="28.8" fill="white"/>
</clipPath>
</defs>
</svg>
