<svg width="106" height="26" viewBox="0 0 106 26" fill="none" xmlns="http://www.w3.org/2000/svg">
<path d="M41.26 6.148H47.146C48.424 6.148 49.432 6.454 50.152 7.066C50.818 7.642 51.16 8.416 51.16 9.388C51.16 10.108 50.98 10.72 50.638 11.224C50.296 11.692 49.81 12.034 49.162 12.286C50.008 12.448 50.638 12.79 51.07 13.312C51.484 13.816 51.7 14.518 51.7 15.382C51.7 16.678 51.25 17.632 50.368 18.244C49.612 18.748 48.532 19 47.164 19H41.26V6.148ZM43.366 7.876V11.548H46.588C47.488 11.548 48.118 11.386 48.496 11.098C48.856 10.792 49.054 10.306 49.054 9.64C49.054 9.028 48.856 8.578 48.496 8.308C48.1 8.02 47.488 7.876 46.624 7.876H43.366ZM43.366 13.276V17.272H46.858C47.65 17.272 48.28 17.146 48.73 16.894C49.306 16.57 49.594 16.066 49.594 15.346C49.594 14.608 49.378 14.086 48.964 13.762C48.532 13.438 47.848 13.276 46.912 13.276H43.366ZM53.6877 5.896H55.7397V19H53.6877V5.896ZM62.038 9.442C63.568 9.442 64.738 9.946 65.548 10.99C66.286 11.926 66.664 13.24 66.664 14.914H59.698C59.77 15.778 60.004 16.444 60.4 16.894C60.796 17.344 61.372 17.578 62.11 17.578C62.74 17.578 63.244 17.434 63.64 17.146C63.946 16.912 64.216 16.534 64.468 16.012H66.52C66.304 16.876 65.872 17.614 65.224 18.19C64.396 18.892 63.37 19.252 62.128 19.252C60.742 19.252 59.644 18.82 58.834 17.974C57.97 17.092 57.538 15.886 57.538 14.338C57.538 12.952 57.934 11.8 58.762 10.864C59.554 9.91 60.652 9.442 62.038 9.442ZM62.092 11.116C61.408 11.116 60.886 11.296 60.49 11.692C60.112 12.07 59.86 12.628 59.734 13.366H64.522C64.342 11.854 63.532 11.116 62.092 11.116ZM73.0969 9.442C75.4189 9.442 76.5889 10.702 76.5889 13.258V19H74.5369V13.438C74.5369 11.908 73.8349 11.152 72.4309 11.152C71.9269 11.152 71.4769 11.332 71.0989 11.692C70.6669 12.088 70.4149 12.664 70.3429 13.402V19H68.2909V9.694H70.3429V10.774C70.7029 10.342 71.1169 10 71.5669 9.784C72.0349 9.55 72.5389 9.442 73.0969 9.442ZM85.3739 5.896H87.4259V19H85.5179V18.01C84.8699 18.838 83.9339 19.252 82.7099 19.252C81.3239 19.252 80.2439 18.766 79.4699 17.794C78.7499 16.894 78.3899 15.724 78.3899 14.302C78.3899 12.934 78.7319 11.8 79.4519 10.9C80.2079 9.928 81.2699 9.442 82.6019 9.442C83.6819 9.442 84.5999 9.946 85.3739 10.972V5.896ZM83.0879 11.098C82.1519 11.098 81.4859 11.404 81.0539 12.016C80.6759 12.538 80.4959 13.294 80.4959 14.302C80.4959 15.31 80.6579 16.084 81.0179 16.624C81.4319 17.272 82.0979 17.596 83.0159 17.596C83.8079 17.596 84.4379 17.272 84.8699 16.642C85.2479 16.066 85.4459 15.31 85.4459 14.41V14.266C85.4459 13.276 85.1939 12.484 84.7259 11.908C84.2939 11.368 83.7359 11.098 83.0879 11.098ZM93.538 9.442C95.068 9.442 96.238 9.946 97.048 10.99C97.786 11.926 98.164 13.24 98.164 14.914H91.198C91.27 15.778 91.504 16.444 91.9 16.894C92.296 17.344 92.872 17.578 93.61 17.578C94.24 17.578 94.744 17.434 95.14 17.146C95.446 16.912 95.716 16.534 95.968 16.012H98.02C97.804 16.876 97.372 17.614 96.724 18.19C95.896 18.892 94.87 19.252 93.628 19.252C92.242 19.252 91.144 18.82 90.334 17.974C89.47 17.092 89.038 15.886 89.038 14.338C89.038 12.952 89.434 11.8 90.262 10.864C91.054 9.91 92.152 9.442 93.538 9.442ZM93.592 11.116C92.908 11.116 92.386 11.296 91.99 11.692C91.612 12.07 91.36 12.628 91.234 13.366H96.022C95.842 11.854 95.032 11.116 93.592 11.116ZM104.183 9.442C104.633 9.442 105.029 9.514 105.353 9.676V11.728C104.885 11.584 104.453 11.53 104.021 11.53C103.481 11.53 102.995 11.728 102.563 12.16C102.059 12.646 101.825 13.276 101.825 14.068V19H99.7909V9.694H101.825V11.026C102.077 10.558 102.365 10.198 102.707 9.946C103.121 9.604 103.607 9.442 104.183 9.442Z" fill="white" fill-opacity="0.4"/>
<path d="M16.6796 14.6153C16.741 13.5487 17.2636 12.6073 18.053 11.9407C18.8811 11.2528 19.9257 10.8797 21.0023 10.8873C22.1356 10.8873 23.177 11.2873 23.9503 11.9407C24.7396 12.6073 25.261 13.5487 25.321 14.614C25.381 15.7113 24.941 16.7287 24.1676 17.4847C23.3158 18.2982 22.1801 18.7469 21.0023 18.7353C19.8237 18.7471 18.6871 18.2983 17.8343 17.4847C17.061 16.7287 16.621 15.7113 16.681 14.6153M9.79963 16.7713C9.80763 17.19 9.94096 18.0007 10.141 18.6353C10.5727 20.0008 11.2976 21.2554 12.265 22.3113C13.3024 23.4519 14.5686 24.361 15.981 24.9793C17.5181 25.6569 19.1811 26.0023 20.861 25.9927C22.5406 25.996 24.202 25.6452 25.737 24.9633C27.1484 24.3392 28.4133 23.4262 29.4503 22.2833C30.416 21.2239 31.1403 19.9674 31.573 18.6007C31.989 17.2765 32.1029 15.876 31.9063 14.502C31.7191 13.1857 31.2576 11.9233 30.5516 10.7967C29.8976 9.7486 29.0613 8.82606 28.0823 8.07267H28.085L18.0876 0.396669L18.061 0.376669C17.405 -0.127331 16.3023 -0.124664 15.581 0.379336C14.8516 0.888669 14.769 1.73267 15.417 2.266L15.4156 2.26734L19.5836 5.658L6.87696 5.67134H6.85963C5.80896 5.67267 4.79963 6.362 4.59963 7.234C4.3943 8.12067 5.1063 8.85667 6.19963 8.86067V8.86334L12.6396 8.85L1.1463 17.6727L1.10096 17.706C0.0169637 18.5353 -0.33237 19.9167 0.350297 20.79C1.04363 21.6793 2.51696 21.6807 3.61296 20.7953L9.88496 15.6633C9.88496 15.6633 9.79296 16.3567 9.80096 16.7713H9.79963ZM25.9196 19.0927C24.6263 20.41 22.8183 21.1567 20.8596 21.1593C18.8996 21.1647 17.0903 20.4233 15.797 19.1087C15.1863 18.4956 14.7151 17.7579 14.4156 16.946C14.1412 16.1821 14.0328 15.3685 14.0976 14.5595C14.1624 13.7504 14.399 12.9644 14.7916 12.254C15.1822 11.5518 15.7041 10.9312 16.329 10.426C17.585 9.402 19.1836 8.84867 20.857 8.846C22.5316 8.84334 24.1303 9.39267 25.3876 10.4127C26.0276 10.934 26.5476 11.5513 26.9236 12.2353C27.3128 12.9363 27.55 13.7113 27.6196 14.51C27.6903 15.3285 27.5815 16.1525 27.301 16.9247C27.0014 17.7378 26.5308 18.4771 25.921 19.0927" fill="white" fill-opacity="0.4"/>
</svg>
