<svg width="89" height="26" viewBox="0 0 89 26" fill="none" xmlns="http://www.w3.org/2000/svg">
<path d="M40.84 5.896C42.352 5.896 43.612 6.292 44.584 7.084C45.52 7.84 46.078 8.884 46.276 10.18H44.224C44.008 9.334 43.612 8.722 43.018 8.326C42.442 7.93 41.704 7.75 40.804 7.75C39.454 7.75 38.446 8.2 37.762 9.136C37.132 9.964 36.826 11.116 36.826 12.592C36.826 14.104 37.132 15.274 37.744 16.084C38.41 16.948 39.454 17.398 40.858 17.398C41.776 17.398 42.532 17.164 43.108 16.732C43.72 16.246 44.152 15.508 44.404 14.536H46.456C46.168 16.048 45.502 17.218 44.44 18.064C43.45 18.856 42.262 19.252 40.876 19.252C38.734 19.252 37.132 18.568 36.088 17.236C35.17 16.084 34.72 14.536 34.72 12.592C34.72 10.684 35.188 9.118 36.142 7.93C37.222 6.562 38.788 5.896 40.84 5.896ZM52.5836 9.442C53.9876 9.442 55.1216 9.892 55.9856 10.828C56.8316 11.746 57.2636 12.916 57.2636 14.356C57.2636 15.778 56.8316 16.948 56.0036 17.848C55.1396 18.784 53.9876 19.252 52.5836 19.252C51.1616 19.252 50.0276 18.784 49.1636 17.848C48.3176 16.948 47.9036 15.778 47.9036 14.356C47.9036 12.916 48.3176 11.746 49.1816 10.828C50.0276 9.892 51.1616 9.442 52.5836 9.442ZM52.5836 11.116C51.7196 11.116 51.0716 11.44 50.6036 12.124C50.2076 12.7 50.0096 13.456 50.0096 14.356C50.0096 15.256 50.2076 15.994 50.6036 16.57C51.0716 17.236 51.7196 17.578 52.5836 17.578C53.4296 17.578 54.0956 17.236 54.5636 16.57C54.9596 15.976 55.1756 15.238 55.1756 14.356C55.1756 13.456 54.9596 12.7 54.5636 12.124C54.0956 11.44 53.4296 11.116 52.5836 11.116ZM65.6806 5.896H67.7326V19H65.8246V18.01C65.1766 18.838 64.2406 19.252 63.0166 19.252C61.6306 19.252 60.5506 18.766 59.7766 17.794C59.0566 16.894 58.6966 15.724 58.6966 14.302C58.6966 12.934 59.0386 11.8 59.7586 10.9C60.5146 9.928 61.5766 9.442 62.9086 9.442C63.9886 9.442 64.9066 9.946 65.6806 10.972V5.896ZM63.3946 11.098C62.4586 11.098 61.7926 11.404 61.3606 12.016C60.9826 12.538 60.8026 13.294 60.8026 14.302C60.8026 15.31 60.9646 16.084 61.3246 16.624C61.7386 17.272 62.4046 17.596 63.3226 17.596C64.1146 17.596 64.7446 17.272 65.1766 16.642C65.5546 16.066 65.7526 15.31 65.7526 14.41V14.266C65.7526 13.276 65.5006 12.484 65.0326 11.908C64.6006 11.368 64.0426 11.098 63.3946 11.098ZM73.8447 9.442C75.3747 9.442 76.5447 9.946 77.3547 10.99C78.0927 11.926 78.4707 13.24 78.4707 14.914H71.5047C71.5767 15.778 71.8107 16.444 72.2067 16.894C72.6027 17.344 73.1787 17.578 73.9167 17.578C74.5467 17.578 75.0507 17.434 75.4467 17.146C75.7527 16.912 76.0227 16.534 76.2747 16.012H78.3267C78.1107 16.876 77.6787 17.614 77.0307 18.19C76.2027 18.892 75.1767 19.252 73.9347 19.252C72.5487 19.252 71.4507 18.82 70.6407 17.974C69.7767 17.092 69.3447 15.886 69.3447 14.338C69.3447 12.952 69.7407 11.8 70.5687 10.864C71.3607 9.91 72.4587 9.442 73.8447 9.442ZM73.8987 11.116C73.2147 11.116 72.6927 11.296 72.2967 11.692C71.9187 12.07 71.6667 12.628 71.5407 13.366H76.3287C76.1487 11.854 75.3387 11.116 73.8987 11.116ZM79.5216 9.694H81.9156L83.8596 12.538L85.7856 9.694H88.1796L84.9756 14.05L88.5936 19H86.1816L83.8596 15.562L81.5196 19H79.1076L82.7256 14.05L79.5216 9.694Z" fill="white" fill-opacity="0.4"/>
<path d="M6.51304 25.9913V25.5884C6.51594 22.1913 6.51594 18.7942 6.51884 15.3971C6.52464 10.4087 6.53333 5.4203 6.53913 0.431893C6.53913 0.0173999 6.53913 0.0173999 6.95942 0.0173999C12.7072 0.0145013 18.4551 0.0202984 24.2029 8.59554e-06C25.2145 -0.00288995 26.0029 0.727545 26 1.80291C25.971 9.30725 25.9826 16.8087 25.9826 24.313C25.9826 25.3362 25.3333 25.9884 24.313 25.9913C18.5043 25.9942 12.6927 25.9942 6.88406 25.9942C6.77971 25.9913 6.67826 25.9913 6.51304 25.9913ZM16.0609 23.7971C15.2319 22.4145 14.4319 21.0841 13.6319 19.7507C13.8493 19.6725 14.0464 19.6145 14.2348 19.5333C16.0956 18.7391 15.9884 16.5015 15.113 15.5826C14.5391 14.9826 13.8174 14.7015 13.0232 14.6609C11.8261 14.6 10.6232 14.6232 9.42319 14.5942C9.15362 14.5884 9.10435 14.6899 9.10435 14.9333C9.11304 17.7768 9.11014 20.6203 9.11014 23.4638C9.11014 23.5623 9.12174 23.6638 9.12753 23.771H10.7942V19.9159C11.0928 19.9159 11.3594 19.9333 11.6232 19.9102C11.8638 19.887 11.9884 19.9826 12.0985 20.1913C12.7043 21.3217 13.3217 22.4435 13.942 23.5652C13.9913 23.6551 14.087 23.7797 14.1623 23.7826C14.771 23.8058 15.3826 23.7971 16.0609 23.7971ZM18.3043 20.0232C18.7913 20.0232 19.2319 20.0348 19.6725 20.0203C20.4464 19.9942 21.1971 19.8783 21.8985 19.5073C23.5391 18.6377 23.4725 15.9797 22.0522 15.1449C21.5536 14.8522 21.0174 14.6783 20.4493 14.658C19.3014 14.6174 18.1507 14.6261 17.0029 14.5971C16.713 14.5884 16.6174 14.6638 16.6174 14.9681C16.629 17.7913 16.6261 20.6116 16.6261 23.4348C16.6261 23.5449 16.6348 23.6551 16.6406 23.7768H18.3014C18.3043 22.5246 18.3043 21.2957 18.3043 20.0232ZM4.82029 0.00870425V25.9797C4.71594 25.9855 4.61739 25.9971 4.51884 25.9971C3.56522 25.9971 2.6087 26 1.65507 25.9971C0.657971 25.9942 0 25.3333 0 24.3304C0.00289855 16.7855 0.0057971 9.24059 0.0115942 1.69276C0.0115942 0.684066 0.684058 0.0145013 1.68985 0.0116028C2.62319 0.00870425 3.55942 0.00870425 4.49275 0.00870425H4.82029Z" fill="white" fill-opacity="0.4"/>
<path d="M10.793 18.4985V16.0173C11.6249 16.0637 12.4538 15.9043 13.2596 16.1796C13.7669 16.3536 14.0249 16.7217 14.0335 17.2115C14.0422 17.7739 13.8046 18.1507 13.2857 18.3594C13.1263 18.4231 12.9524 18.4869 12.7843 18.4927C12.1321 18.5072 11.4799 18.4985 10.793 18.4985ZM18.3176 18.655V15.9941C19.0364 16.0347 19.7437 16.0289 20.4335 16.1275C21.077 16.2202 21.4104 16.655 21.422 17.2347C21.4364 17.8724 21.1437 18.3362 20.4915 18.4579C19.7901 18.5854 19.0625 18.5912 18.3176 18.655Z" fill="white" fill-opacity="0.4"/>
</svg>
