<svg width="147" height="26" viewBox="0 0 147 26" fill="none" xmlns="http://www.w3.org/2000/svg">
<path d="M20.6943 0C23.6256 0.000247795 25.9998 2.3744 26 5.30566V20.6943C25.9998 23.6256 23.6256 25.9998 20.6943 26H5.30566C2.3744 25.9998 0.000247794 23.6256 0 20.6943V5.30566C0.000247586 2.3744 2.3744 0.000247585 5.30566 0H20.6943ZM20.7969 9.68066C20.1868 9.68074 19.5764 9.82919 19.0459 10.1289C18.5737 10.3836 18.1603 10.7159 17.8154 11.1191C17.8154 10.9706 17.8016 10.8324 17.791 10.7051C17.7804 10.591 17.7573 10.4636 17.7334 10.3496C17.7228 10.2435 17.6985 10.1534 17.6641 10.0605C17.6296 9.95714 17.5395 9.87704 17.4229 9.87695H15.4062C15.3956 9.86409 15.3725 9.86418 15.3721 9.87695C15.3164 9.88756 15.2815 9.94628 15.292 10.002C15.3159 10.2673 15.3369 10.5225 15.3369 10.7852C15.3502 11.0848 15.3507 11.3846 15.3613 11.6816C15.3719 11.9814 15.3721 12.2681 15.3721 12.5439V18.9619C15.3747 18.9832 15.3818 19.0039 15.3926 19.0225C15.4034 19.041 15.4174 19.0575 15.4346 19.0703C15.4519 19.0832 15.4721 19.0927 15.4932 19.0977C15.5142 19.1026 15.5363 19.1034 15.5576 19.0996H17.8262C17.9294 19.0995 17.9775 19.0543 17.9775 18.9404V13.0742C18.1367 12.8913 18.3434 12.7528 18.5635 12.6494C18.8738 12.5088 19.198 12.4059 19.5322 12.3369C19.9354 12.2468 20.36 12.212 20.7764 12.2227C20.9007 12.2226 20.9588 12.1882 20.959 12.0957V9.80859C20.9484 9.72635 20.8791 9.67005 20.7969 9.68066ZM8.72559 6.89844C8.3808 6.89844 8.03578 6.89759 7.67773 6.9082C7.3223 6.92146 6.9878 6.92201 6.6748 6.93262C6.36451 6.94322 6.07759 6.94279 5.80176 6.95605C5.53687 6.96664 5.35134 6.9668 5.15527 6.9668C5.07568 6.9668 5.04102 7.01248 5.04102 7.09473V18.9268L5.04883 18.9941C5.06582 19.0513 5.10902 19.0781 5.17871 19.0781H7.41309C7.4951 19.0647 7.55063 18.9955 7.54004 18.916V15.2256C7.76022 15.2256 7.91941 15.2257 8.03613 15.2363C8.15021 15.2469 8.33639 15.2471 8.6123 15.2471C9.55661 15.247 10.4189 15.1439 11.2041 14.8574C11.9522 14.5815 12.597 14.0987 13.0586 13.4541C13.5176 12.8094 13.748 11.9918 13.748 11.0049C13.748 10.4876 13.6549 9.99162 13.4824 9.50879C13.2994 9.01533 13.0104 8.56701 12.6416 8.19824C12.2039 7.77117 11.6762 7.45024 11.1006 7.25391C10.4559 7.01248 9.67008 6.89844 8.72559 6.89844ZM8.80859 9.17383C9.28068 9.16327 9.73998 9.23288 10.167 9.40527C10.4984 9.53249 10.7804 9.76214 10.9727 10.0605C11.1557 10.371 11.2489 10.7295 11.2383 11.085C11.2382 11.5915 11.1212 11.9811 10.8799 12.2676C10.6278 12.5567 10.3043 12.7745 9.93555 12.8779C9.51125 13.0158 9.06047 13.0849 8.6123 13.085H8.00195C7.86404 13.085 7.71256 13.0741 7.55078 13.0635V9.19824C7.63303 9.18764 7.79465 9.17428 8.02246 9.1875C8.24267 9.17423 8.5088 9.17383 8.80859 9.17383Z" fill="white" fill-opacity="0.5"/>
<path d="M35.26 6.148H40.588C43.684 6.148 45.25 7.462 45.25 10.09C45.25 12.736 43.684 14.068 40.552 14.068H37.366V19H35.26V6.148ZM37.366 7.948V12.268H40.426C41.362 12.268 42.046 12.088 42.478 11.764C42.91 11.422 43.126 10.864 43.126 10.09C43.126 9.316 42.892 8.776 42.46 8.452C42.028 8.11 41.344 7.948 40.426 7.948H37.366ZM51.2669 9.442C51.7169 9.442 52.1129 9.514 52.4369 9.676V11.728C51.9689 11.584 51.5369 11.53 51.1049 11.53C50.5649 11.53 50.0789 11.728 49.6469 12.16C49.1429 12.646 48.9089 13.276 48.9089 14.068V19H46.8749V9.694H48.9089V11.026C49.1609 10.558 49.4489 10.198 49.7909 9.946C50.2049 9.604 50.6909 9.442 51.2669 9.442ZM57.5673 9.442C59.0973 9.442 60.2673 9.946 61.0773 10.99C61.8153 11.926 62.1933 13.24 62.1933 14.914H55.2273C55.2993 15.778 55.5333 16.444 55.9293 16.894C56.3253 17.344 56.9013 17.578 57.6393 17.578C58.2693 17.578 58.7733 17.434 59.1693 17.146C59.4753 16.912 59.7453 16.534 59.9973 16.012H62.0493C61.8333 16.876 61.4013 17.614 60.7533 18.19C59.9253 18.892 58.8993 19.252 57.6573 19.252C56.2713 19.252 55.1733 18.82 54.3633 17.974C53.4993 17.092 53.0673 15.886 53.0673 14.338C53.0673 12.952 53.4633 11.8 54.2913 10.864C55.0833 9.91 56.1813 9.442 57.5673 9.442ZM57.6213 11.116C56.9373 11.116 56.4153 11.296 56.0193 11.692C55.6413 12.07 55.3893 12.628 55.2633 13.366H60.0513C59.8713 11.854 59.0613 11.116 57.6213 11.116ZM68.3922 9.442C69.7602 9.442 70.7322 9.946 71.3262 10.954C71.7582 10.378 72.2082 9.982 72.6762 9.766C73.0902 9.55 73.6122 9.442 74.2422 9.442C75.1962 9.442 75.9882 9.748 76.6362 10.396C77.2482 11.044 77.5722 11.872 77.5722 12.898V19H75.5202V13.258C75.5202 12.52 75.3582 11.98 75.0522 11.656C74.7282 11.314 74.2242 11.152 73.5042 11.152C73.0002 11.152 72.5862 11.332 72.2442 11.728C71.8842 12.106 71.7222 12.628 71.7222 13.312V19H69.6702V13.276C69.6702 11.854 69.0582 11.152 67.8342 11.152C67.2402 11.152 66.7722 11.368 66.4122 11.836C66.0522 12.268 65.8722 12.808 65.8722 13.42V19H63.8202V9.694H65.8722V10.648C66.6462 9.838 67.4922 9.442 68.3922 9.442ZM81.1144 5.896C81.5104 5.896 81.8524 6.022 82.1224 6.274C82.3744 6.526 82.5184 6.85 82.5184 7.246C82.5184 7.642 82.3744 7.984 82.1044 8.236C81.8344 8.488 81.5104 8.614 81.1144 8.614C80.7184 8.614 80.3944 8.488 80.1244 8.236C79.8544 7.966 79.7284 7.642 79.7284 7.246C79.7284 6.85 79.8544 6.526 80.1244 6.274C80.3944 6.022 80.7184 5.896 81.1144 5.896ZM80.0884 9.694H82.1404V19H80.0884V9.694ZM88.6455 9.442C90.1755 9.442 91.3455 9.946 92.1555 10.99C92.8935 11.926 93.2715 13.24 93.2715 14.914H86.3055C86.3775 15.778 86.6115 16.444 87.0075 16.894C87.4035 17.344 87.9795 17.578 88.7175 17.578C89.3475 17.578 89.8515 17.434 90.2475 17.146C90.5535 16.912 90.8235 16.534 91.0755 16.012H93.1275C92.9115 16.876 92.4795 17.614 91.8315 18.19C91.0035 18.892 89.9775 19.252 88.7355 19.252C87.3495 19.252 86.2515 18.82 85.4415 17.974C84.5775 17.092 84.1455 15.886 84.1455 14.338C84.1455 12.952 84.5415 11.8 85.3695 10.864C86.1615 9.91 87.2595 9.442 88.6455 9.442ZM88.6995 11.116C88.0155 11.116 87.4935 11.296 87.0975 11.692C86.7195 12.07 86.4675 12.628 86.3415 13.366H91.1295C90.9495 11.854 90.1395 11.116 88.6995 11.116ZM99.2904 9.442C99.7404 9.442 100.136 9.514 100.46 9.676V11.728C99.9924 11.584 99.5604 11.53 99.1284 11.53C98.5884 11.53 98.1024 11.728 97.6704 12.16C97.1664 12.646 96.9324 13.276 96.9324 14.068V19H94.8984V9.694H96.9324V11.026C97.1844 10.558 97.4724 10.198 97.8144 9.946C98.2284 9.604 98.7144 9.442 99.2904 9.442ZM105.591 9.442C107.121 9.442 108.291 9.946 109.101 10.99C109.839 11.926 110.217 13.24 110.217 14.914H103.251C103.323 15.778 103.557 16.444 103.953 16.894C104.349 17.344 104.925 17.578 105.663 17.578C106.293 17.578 106.797 17.434 107.193 17.146C107.499 16.912 107.769 16.534 108.021 16.012H110.073C109.857 16.876 109.425 17.614 108.777 18.19C107.949 18.892 106.923 19.252 105.681 19.252C104.295 19.252 103.197 18.82 102.387 17.974C101.523 17.092 101.091 15.886 101.091 14.338C101.091 12.952 101.487 11.8 102.315 10.864C103.107 9.91 104.205 9.442 105.591 9.442ZM105.645 11.116C104.961 11.116 104.439 11.296 104.043 11.692C103.665 12.07 103.413 12.628 103.287 13.366H108.075C107.895 11.854 107.085 11.116 105.645 11.116ZM118.018 6.148H123.346C126.442 6.148 128.008 7.462 128.008 10.09C128.008 12.736 126.442 14.068 123.31 14.068H120.124V19H118.018V6.148ZM120.124 7.948V12.268H123.184C124.12 12.268 124.804 12.088 125.236 11.764C125.668 11.422 125.884 10.864 125.884 10.09C125.884 9.316 125.65 8.776 125.218 8.452C124.786 8.11 124.102 7.948 123.184 7.948H120.124ZM134.025 9.442C134.475 9.442 134.871 9.514 135.195 9.676V11.728C134.727 11.584 134.295 11.53 133.863 11.53C133.323 11.53 132.837 11.728 132.405 12.16C131.901 12.646 131.667 13.276 131.667 14.068V19H129.633V9.694H131.667V11.026C131.919 10.558 132.207 10.198 132.549 9.946C132.963 9.604 133.449 9.442 134.025 9.442ZM140.685 9.442C142.089 9.442 143.223 9.892 144.087 10.828C144.933 11.746 145.365 12.916 145.365 14.356C145.365 15.778 144.933 16.948 144.105 17.848C143.241 18.784 142.089 19.252 140.685 19.252C139.263 19.252 138.129 18.784 137.265 17.848C136.419 16.948 136.005 15.778 136.005 14.356C136.005 12.916 136.419 11.746 137.283 10.828C138.129 9.892 139.263 9.442 140.685 9.442ZM140.685 11.116C139.821 11.116 139.173 11.44 138.705 12.124C138.309 12.7 138.111 13.456 138.111 14.356C138.111 15.256 138.309 15.994 138.705 16.57C139.173 17.236 139.821 17.578 140.685 17.578C141.531 17.578 142.197 17.236 142.665 16.57C143.061 15.976 143.277 15.238 143.277 14.356C143.277 13.456 143.061 12.7 142.665 12.124C142.197 11.44 141.531 11.116 140.685 11.116Z" fill="white" fill-opacity="0.4"/>
</svg>
